inDegrees=no
num_controls=7
num_derivatives=13
num_iterations=74
num_multipliers=7
num_parameters=0
num_slacks=7
num_states=26
objective=0.333910
objective_accelerations=0.037166
objective_balance=0.001329
objective_effort=0.027245
objective_height=0.266699
objective_ligament=0.001471
solver_duration=770.238735
status=Solve_Succeeded
success=true
DataType=double
version=3
OpenSimVersion=4.5
endheader
time	/jointset/ground_pelvis/pelvis_tilt/value	/jointset/ground_pelvis/pelvis_tx/value	/jointset/ground_pelvis/pelvis_ty/value	/jointset/hip_r/hip_flexion_r/value	/jointset/hip_r/hip_adduction_r/value	/jointset/hip_r/hip_rotation_r/value	/jointset/back/lumbar_extension/value	/jointset/patellofemoral_r/patellar_flexion_r/value	/jointset/knee_r/knee_flexion_r/value	/jointset/knee_r/knee_adduction_r/value	/jointset/knee_r/knee_rotation_r/value	/jointset/ankle_r/ankle_angle_r/value	/jointset/subtalar_r/subtalar_angle_r/value	/jointset/ground_pelvis/pelvis_tilt/speed	/jointset/ground_pelvis/pelvis_tx/speed	/jointset/ground_pelvis/pelvis_ty/speed	/jointset/hip_r/hip_flexion_r/speed	/jointset/hip_r/hip_adduction_r/speed	/jointset/hip_r/hip_rotation_r/speed	/jointset/back/lumbar_extension/speed	/jointset/patellofemoral_r/patellar_flexion_r/speed	/jointset/knee_r/knee_flexion_r/speed	/jointset/knee_r/knee_adduction_r/speed	/jointset/knee_r/knee_rotation_r/speed	/jointset/ankle_r/ankle_angle_r/speed	/jointset/subtalar_r/subtalar_angle_r/speed	/forceset/tau_hip_flexion_r	/forceset/tau_hip_adduction_r	/forceset/tau_hip_rotation_r	/forceset/tau_knee_flexion_r	/forceset/tau_ankle_angle_r	/forceset/tau_subtalar_angle_r	/forceset/tau_lumbar_extension	lambda_cid13_p0	lambda_cid14_p0	lambda_cid14_p1	lambda_cid14_p2	lambda_cid14_p3	lambda_cid14_p4	lambda_cid14_p5	/jointset/ground_pelvis/pelvis_tilt/accel	/jointset/ground_pelvis/pelvis_tx/accel	/jointset/ground_pelvis/pelvis_ty/accel	/jointset/hip_r/hip_flexion_r/accel	/jointset/hip_r/hip_adduction_r/accel	/jointset/hip_r/hip_rotation_r/accel	/jointset/back/lumbar_extension/accel	/jointset/patellofemoral_r/patellar_flexion_r/accel	/jointset/knee_r/knee_flexion_r/accel	/jointset/knee_r/knee_adduction_r/accel	/jointset/knee_r/knee_rotation_r/accel	/jointset/ankle_r/ankle_angle_r/accel	/jointset/subtalar_r/subtalar_angle_r/accel	gamma_cid13_p0	gamma_cid14_p0	gamma_cid14_p1	gamma_cid14_p2	gamma_cid14_p3	gamma_cid14_p4	gamma_cid14_p5
0	-0.01093420246758432	0.1337397101508054	0.9326448717806568	0.1934211968871041	-0.2363523515684709	-0.2361200548091899	-0.2903787966825928	0.2311786273363211	0.2311786273363406	0.1506637240842641	0.1728749229008371	0.089344008118978	0.05367124473626859	0	0	0	0	0	0	0	0	0	0	0	0	0	0.1053840577054302	-0.035800966647631	0.005692904923539042	-0.2414803376060721	0.1186455985149385	-0.1274199073346994	-0.02733981702188671	-29.97997276938011	-10.13031014417175	-51.99130471679258	2.861464431962366	4.722901297241516	-611.056695031148	16.41707544079586	-2.129543081613358	-1.946116456705209	-0.8405916180358942	10.43149394289259	0.2771331119644548	2.343510182172368	-6.268781812360296	10.16297771349663	10.16297771349668	-3.187909995421384	0.2665986679055556	2.696397436659743	1.069778641710446	4.696697926544339e-08	4.667521937363992e-08	-3.066658349231904e-07	2.033329637592399e-07	-3.00193002730006e-09	2.234327210909542e-07	-2.313347963447633e-07
0.01	-0.01103467635288208	0.1336450065551135	0.932604095326641	0.1939289446477453	-0.2363351574929699	-0.2360019284335982	-0.2906940949631529	0.2316777450767244	0.2316777450767282	0.1504996774008205	0.1728828123952117	0.08947929765749446	0.053728979533198	-0.02002115660958308	-0.01870103820320384	-0.008128642110814955	0.1009345258554173	0.003483830957353796	0.02352471616959889	-0.06268430911547632	0.09936966085143678	0.09936966085143825	-0.03278338957295874	0.00150233791186481	0.02714959468820766	0.01163222323659795	0.1067512418307175	-0.05654445297209702	0.005244696154081236	-0.2498916988484013	0.129232123287865	-0.1139230236112319	-0.02701707061402234	-29.98465471721778	-6.043674869851404	-45.32940724669297	1.70267191208085	-0.4696772846130419	-612.6532986937182	31.20264493111582	-1.927361270629951	-1.796145960665644	-0.7949585173064975	9.832179157160342	0.3907434771572905	2.341912030787298	-6.211953412905011	9.755867792802443	9.755867792802594	-3.319693702894477	0.08075903640193258	2.738002802576017	1.222708926631988	8.981697211134938e-08	5.00957365978043e-08	-5.534986690022643e-07	4.230278780825429e-07	2.918155902976144e-08	1.230736011734324e-07	-5.116112277408017e-07
0.02	-0.01133315366824477	0.1333704828856836	0.9324828408495774	0.1954275871170302	-0.2362817780299892	-0.2356515629570286	-0.2916249759252106	0.2331569409300121	0.2331569409300075	0.1500085687687181	0.1729034668054094	0.08988883560642945	0.05390558951489292	-0.03960068601925232	-0.03596401474758996	-0.01609560460955628	0.1981789417226007	0.00723707749617329	0.04644782019655124	-0.1231165363015883	0.1960156225762852	0.1960156225762878	-0.06541238973238137	0.002552983166720257	0.05484968208341476	0.0237750369531034	0.1081184259561022	-0.07728793929657841	0.00479648738459407	-0.2583030600906667	0.1398186480608076	-0.10042613988777	-0.02669432420608786	-29.99813635787471	-1.876791977124122	-38.679103263535	0.5750216759368119	-5.57271229465511	-612.9120877102793	45.63083982489659	-2.04121764163123	-1.658504124941102	-0.8082556956212009	9.693471945245772	0.3310162282576453	2.223187753643052	-5.818365426487825	9.618237888178829	9.618237888178813	-3.157032112714258	0.1762601365035959	2.80649597806025	1.171896737692189	1.326669649572554e-07	5.351625382196869e-08	-8.003315030813385e-07	6.427227924058458e-07	6.136504808682294e-08	2.271448125591067e-08	-7.918876591368402e-07
0.03	-0.01182577678232669	0.1329288215934761	0.9322823251217801	0.1978825604134102	-0.236191016208737	-0.2350770729325815	-0.293147685005011	0.235589127209266	0.2355891272092518	0.1491951339089742	0.17293508699058	0.09057532188643964	0.05420361156501319	-0.05886488922104933	-0.0522976840601047	-0.02401310038776338	0.2923914404094157	0.01083746232527856	0.06829823918325838	-0.1809718486290429	0.2899617478353967	0.2899617478353969	-0.09696928748625178	0.003795170006461411	0.08226910890469222	0.035691024267767	0.1019154591521441	-0.07906892330709279	0.005563214449806252	-0.2513717131975186	0.1294511681479261	-0.09409953349716196	-0.02165783538784096	-30.01974280738695	-4.877509922723588	-36.30951390221436	0.02893702965494612	-4.148267779531478	-613.2035548475221	49.3314769837519	-1.860156263961109	-1.610201984833681	-0.7843262972773725	9.221504847099315	0.3628813966855733	2.143303343815477	-5.701099482510667	9.213790323048041	9.213790323047659	-3.109284962209836	0.1019400618915132	2.682911548082219	1.180647600078303	1.324858064702784e-07	4.669167438036826e-08	-7.709908981898781e-07	6.540916654656019e-07	6.532199662127628e-08	-5.344005323266678e-08	-7.889227592489391e-07
0.04	-0.01250926884928044	0.1323259428780597	0.9320024684805294	0.2012669319000159	-0.2360665841818647	-0.2342886118437321	-0.2952353442774106	0.2389469728366988	0.2389469728366909	0.1480752768002324	0.1729798774651845	0.09153065153746415	0.05461663306262507	-0.07777447660321815	-0.06820749938936832	-0.03196378730026955	0.384058579764245	0.0139711186123536	0.08924203307519776	-0.2361065748220359	0.3811474922253335	0.3811474922253311	-0.1266968394595818	0.005187041013470466	0.1086183562828041	0.04677492645142545	0.09571249234795684	-0.08084990731771376	0.00632994151564537	-0.2444403663045443	0.1190836882349463	-0.08777292710676808	-0.01662134656973079	-30.04845295183091	-7.804366333514367	-33.94778868533683	-0.4921384875077282	-2.653972826218	-612.282776374646	52.70996378634564	-1.970294477706188	-1.573733328290357	-0.8148939224810464	9.184400078848599	0.2376705198516653	2.041862734689488	-5.274248199595896	9.06616171434376	9.066161714343709	-2.791162956606308	0.2061969699570936	2.592460089427699	1.005479711491403	1.314174077496337e-07	3.965585583225721e-08	-7.359559955876851e-07	6.611651562312643e-07	6.869695462949027e-08	-1.290955241041526e-07	-7.801178319118847e-07
